<svg width="18" height="19" viewBox="0 0 18 19" fill="none" xmlns="http://www.w3.org/2000/svg">
<path d="M8.99996 12.5124C8.82472 12.5127 8.6549 12.4517 8.51996 12.3399L4.01996 8.58988C3.8668 8.46258 3.77048 8.27965 3.7522 8.08133C3.73391 7.88301 3.79516 7.68555 3.92246 7.53238C4.04977 7.37922 4.2327 7.2829 4.43102 7.26462C4.62934 7.24633 4.8268 7.30758 4.97996 7.43488L8.99996 10.7949L13.02 7.55488C13.0967 7.49258 13.185 7.44606 13.2797 7.41799C13.3745 7.38991 13.4738 7.38084 13.5721 7.3913C13.6704 7.40175 13.7656 7.43152 13.8523 7.4789C13.9391 7.52628 14.0156 7.59034 14.0775 7.66738C14.1461 7.7445 14.1982 7.83497 14.2303 7.93312C14.2624 8.03128 14.2738 8.13501 14.264 8.2378C14.2541 8.3406 14.2231 8.44025 14.173 8.53052C14.1228 8.62079 14.0546 8.69973 13.9725 8.76238L9.47246 12.3849C9.33365 12.479 9.16729 12.5239 8.99996 12.5124Z" fill="#1F2937"/>
</svg>
